<svg width="115" height="111" xmlns="http://www.w3.org/2000/svg" xmlns:xlink="http://www.w3.org/1999/xlink" xmlns:svgjs="http://svgjs.com/svgjs" viewBox="0 0.042 115 110.916" fill="#fff"><svg xmlns="http://www.w3.org/2000/svg" width="115" height="111" viewBox="2 2 114.03 109.981"><path paint-order="stroke fill markers" fill-rule="evenodd" d="M93.715 105.71L92.7 55.596s8.361 6.766 16.215 2.506c7.854-4.26 7.094-4.009 7.094-4.009s-5.574-28.565-8.614-32.574c-3.04-4.009-12.668-9.521-19.255-12.027C81.554 6.986 78.007 4.48 78.007 4.48h-1.52S61.032 18.26 42.03 5.984c0 0-14.694 5.011-16.721 5.512-2.027.502-5.828-1.002-12.668 13.03C5.8 38.558 2 47.077 2 47.077s15.2 12.027 23.309 11.025c8.107-1.002 2.027.501 2.027.501l-.507 46.606s21.282 10.273 40.03 5.512c18.748-4.76 26.856-5.011 26.856-5.011zM43.615 4.48s12.984 9.427 31.628-.826L73.578 2S53.27 7.953 46.112 2l-2.497 2.48"/></svg></svg>