<svg width="95" height="90" xmlns="http://www.w3.org/2000/svg" xmlns:xlink="http://www.w3.org/1999/xlink" xmlns:svgjs="http://svgjs.com/svgjs" viewBox="0.012 0 94.977 90" fill="#fff"><svg xmlns="http://www.w3.org/2000/svg" width="95" height="90" viewBox="1.019 1.981 93.962 89.038"><path paint-order="stroke fill markers" fill-rule="evenodd" d="M48.008 1.98c-2.332 0-4.31 2.251-4.985 5.397C19.421 9.462 1.02 26.225 1.02 46.507h.24c1.097-3.006 5.837-5.244 11.51-5.244 5.671 0 10.398 2.238 11.495 5.243h.499c1.093-3.005 5.824-5.243 11.493-5.243 5.67 0 10.401 2.238 11.494 5.243h.499c1.097-3.005 5.823-5.243 11.495-5.243 5.672 0 10.413 2.238 11.51 5.243h.482c1.096-3.005 5.824-5.243 11.493-5.243 5.687 0 10.414 2.238 11.51 5.243h.242c0-20.28-18.404-37.044-42.004-39.13-.676-3.145-2.653-5.395-4.969-5.395zm-5.227 45.588v30.357a2.603 2.603 0 01-2.612 2.621 2.614 2.614 0 01-2.615-2.621 5.2 5.2 0 00-5.21-5.23 5.214 5.214 0 00-5.225 5.23c0 .37.013.729.09 1.061.549 6.726 6.127 12.033 12.96 12.033 7.2 0 13.05-5.856 13.05-13.094V47.568c-2.524.933-4.346 2.442-4.97 4.168h-.5c-.622-1.726-2.446-3.235-4.968-4.168z"/></svg></svg>