<svg width="62" height="121" xmlns="http://www.w3.org/2000/svg" xmlns:xlink="http://www.w3.org/1999/xlink" xmlns:svgjs="http://svgjs.com/svgjs" viewBox="0.24 0 61.52 121" fill="#fff"><svg xmlns="http://www.w3.org/2000/svg" width="62" height="121" viewBox="3.999 2 61.01 119.997"><path paint-order="stroke fill markers" fill-rule="evenodd" d="M61.028 10.257s8.126 11.55 1.16 40.143c0 0-5.804 61.54.58 68.168 0 0-17.412 3.787-23.216 1.893 0 0-1.742-58.7-1.742-64.001 0-5.302-3.482-10.983-3.482-10.983s-2.032 12.308-2.322 17.42c-.29 5.113-2.322 57.943-2.322 57.943s-16.252 3.598-23.217-1.893c0 0 3.773-34.652 2.902-51.505-.87-16.852-7.546-45.445-4.643-51.504C7.628 9.878 7.628 9.5 7.628 9.5l53.4.757M8.122 6.167L8.946 2h49.46l1.648 6.667-51.932-2.5z"/></svg></svg>