<svg width="32" height="33" xmlns="http://www.w3.org/2000/svg" xmlns:xlink="http://www.w3.org/1999/xlink" xmlns:svgjs="http://svgjs.com/svgjs" viewBox="0 0.5 32 32" fill="#fff"><svg xmlns="http://www.w3.org/2000/svg" width="32" height="33" viewBox="1.205 1.805 30.39 30.391"><path paint-order="stroke fill markers" fill-rule="evenodd" d="M8.094 25.295a4.015 4.015 0 011.187 2.843 4.003 4.003 0 01-1.185 2.84l-.002.002a4.025 4.025 0 01-2.857 1.178 4.022 4.022 0 01-2.849-1.18 3.99 3.99 0 01-1.183-2.84c0-1.109.45-2.107 1.183-2.843a4.022 4.022 0 012.85-1.18c1.118 0 2.12.453 2.856 1.18zm0 0zM2.388 30.98v-.002.002zm-1.18-18.842v5.804c3.79.002 7.372 1.49 10.054 4.174a14.183 14.183 0 014.168 10.068h.002v.011h5.826c-.004-5.527-2.25-10.534-5.884-14.17-3.632-3.633-8.638-5.883-14.166-5.887zm.01-10.333v5.802c13.544.007 24.551 11.033 24.56 24.588h5.817c-.004-8.377-3.41-15.967-8.913-21.476C17.18 5.218 9.594 1.81 1.218 1.805z"/></svg></svg>