<svg width="30" height="27" xmlns="http://www.w3.org/2000/svg" xmlns:xlink="http://www.w3.org/1999/xlink" xmlns:svgjs="http://svgjs.com/svgjs" viewBox="0 0.064 30 26.871" fill="#fff"><svg xmlns="http://www.w3.org/2000/svg" width="30" height="27" viewBox="1.994 1.007 29.012 25.987"><path paint-order="stroke fill markers" fill-rule="evenodd" d="M16.073 1.007c-1.037 0-1.887.707-2.08 1.673h-.054l-6.824 7.547h3.412l4.72-5.214c.255.106.534.185.826.185.296 0 .57-.079.83-.185l4.715 5.214h3.418l-6.83-7.547h-.055c-.186-.966-1.036-1.673-2.078-1.673zM3.703 11.902c-.947 0-1.71.75-1.71 1.679v.838c0 .884.692 1.58 1.576 1.65l2.691 9.246c.855 1.678 1.71 1.678 2.558 1.678h15.363c.855 0 1.704 0 2.558-1.678l2.697-9.246c.879-.07 1.57-.766 1.57-1.65v-.838c0-.93-.758-1.679-1.703-1.679h-25.6zm4.8 4.191h.424c.946 0 1.88.7 2.08 1.572l1.2 5.216c.2.875-.413 1.595-1.36 1.595h-.429c-.945 0-1.878-.72-2.079-1.595l-1.2-5.216c-.199-.872.417-1.572 1.364-1.572zm8 0c.945 0 1.703.75 1.703 1.68v5.029c0 .93-.758 1.674-1.703 1.674-.947 0-1.71-.744-1.71-1.674v-5.03c0-.93.763-1.679 1.71-1.679zm7.57 0h.43c.945 0 1.557.7 1.357 1.572l-1.2 5.216c-.2.875-1.132 1.595-2.079 1.595h-.43c-.944 0-1.557-.72-1.357-1.595l1.2-5.216c.2-.872 1.132-1.572 2.079-1.572z"/></svg></svg>